<?xml version="1.0" encoding="utf-8"?>
<!-- Generator: Adobe Illustrator 16.0.0, SVG Export Plug-In . SVG Version: 6.00 Build 0)  -->
<!DOCTYPE svg PUBLIC "-//W3C//DTD SVG 1.1//EN" "http://www.w3.org/Graphics/SVG/1.1/DTD/svg11.dtd">
<svg version="1.1" id="Layer_1" xmlns="http://www.w3.org/2000/svg" xmlns:xlink="http://www.w3.org/1999/xlink" x="0px" y="0px"
	 width="200px" height="146px" viewBox="0 0 200 146" enable-background="new 0 0 200 146" xml:space="preserve">
<g>
	<path fill="#8C6B4B" d="M35.535,121.03l-8.876-10.673v10.673H23v-17.789h3.581l8.922,10.775v-10.979h3.659v17.992H35.535z"/>
	<path fill="#8C6B4B" d="M55.728,120.672l-1.089-2.88h-7.419l-1.09,2.88h-4.176l6.667-17h4.617l6.667,17H55.728z M50.929,107.292
		l-2.698,7.313h5.396L50.929,107.292z"/>
	<path fill="#8C6B4B" d="M63.199,113.918v-10.195h3.735v10.093c0,2.37,1.401,4.001,4.073,4.001c2.672,0,4.046-1.631,4.046-4.001
		v-10.093h3.762v10.195c0,4.206-2.542,7.111-7.809,7.111C65.741,121.029,63.199,118.124,63.199,113.918z"/>
	<path fill="#8C6B4B" d="M88.735,118.305l0.959-1.096c1.115,1.249,2.933,2.473,5.422,2.473c3.528,0,4.541-1.937,4.541-3.389
		c0-4.996-10.377-2.396-10.377-8.335c0-2.778,2.543-4.536,5.681-4.536c2.568,0,4.54,0.892,5.863,2.396l-0.985,1.07
		c-1.246-1.478-3.01-2.14-4.955-2.14c-2.309,0-4.047,1.299-4.047,3.134c0,4.359,10.377,1.963,10.377,8.31
		c0,2.191-1.479,4.816-6.148,4.816C92.212,121.007,90.058,119.859,88.735,118.305z"/>
	<path fill="#8C6B4B" d="M110.216,120.725v-15.552h-5.489v-1.525h12.808v1.525h-5.794v15.552H110.216z"/>
	<path fill="#8C6B4B" d="M120.889,114.32v-10.673h1.524v10.673c0,3.44,1.741,5.332,5.139,5.332c3.399,0,5.229-1.891,5.229-5.332
		v-10.673h1.524v10.673c0,4.206-2.292,6.657-6.754,6.657C123.117,120.977,120.889,118.5,120.889,114.32z"/>
	<path fill="#8C6B4B" d="M137.661,120.725v-17.077h5.49c5.37,0,8.844,3.875,8.844,8.539c0,4.714-3.474,8.538-8.844,8.538H137.661z
		 M150.469,112.187c0-3.977-2.728-7.014-7.318-7.014h-3.964V119.2h3.964C147.716,119.2,150.469,116.163,150.469,112.187z"/>
	<path fill="#8C6B4B" d="M155.349,120.725v-17.077h1.525v17.077H155.349z"/>
	<path fill="#8C6B4B" d="M160.077,112.185c0-4.97,3.321-8.793,8.405-8.793c5.059,0,8.405,3.823,8.405,8.793
		s-3.346,8.792-8.405,8.792C163.397,120.977,160.077,117.154,160.077,112.185z M175.33,112.185c0-4.307-2.697-7.467-6.848-7.467
		c-4.176,0-6.849,3.16-6.849,7.467c0,4.281,2.673,7.467,6.849,7.467C172.633,119.652,175.33,116.466,175.33,112.185z"/>
	<path fill="#8C6B4B" d="M81.279,42.024c2.745,0,4.969-2.186,4.969-4.881c0-2.694-2.224-4.88-4.969-4.88
		c-2.744,0-4.968,2.186-4.968,4.88C76.311,39.839,78.535,42.024,81.279,42.024z"/>
	<path fill="#8C6B4B" d="M118.587,76.389c-2.744,0-4.968,2.186-4.968,4.881c0,2.696,2.225,4.881,4.968,4.881
		c2.744,0,4.968-2.185,4.968-4.881C123.555,78.574,121.331,76.389,118.587,76.389z"/>
	<path fill="#8C6B4B" d="M170.911,85.96c3.628-3.922,6.087-9.161,6.087-15.213v0v-0.001V60.685v-4.286v-1.835L177,24.97l-12.496,0
		c-0.619,0-2.096,0.06-3.59,1.528c-0.822,0.807-1.263,1.746-1.263,3.368v41.735c-0.004,0.939-0.373,2-0.998,2.885
		c-0.016,0.021-0.031,0.042-0.047,0.062c-0.003,0.006-0.009,0.013-0.013,0.018c-0.211,0.272-0.452,0.523-0.716,0.745
		c0.018-0.001,0.034-0.005,0.051-0.008c-0.611,0.553-1.386,0.966-2.314,1.131c-0.106,0.003-0.21,0.01-0.317,0.012
		c-0.214,0.027-0.433,0.047-0.654,0.047c-0.526,0-1.03-0.083-1.504-0.231C156.969,81.967,163.481,85.774,170.911,85.96z"/>
	<path fill="#8C6B4B" d="M159.59,71.573L159.59,71.573v0.022C159.59,71.595,159.59,71.586,159.59,71.573z"/>
	<path fill="#8C6B4B" d="M150.478,74.261c-0.208-0.315-0.381-0.654-0.513-1.011l-0.072-0.209l-6.587-18.592l-1.684-4.754
		l-3.47-9.789l-0.08-0.168c-1.338-3.644-4.331-7.615-8.521-10.515c-9.844,0.292-18.058,6.942-20.528,15.916
		c1.697-1.946,4.139-3.018,6.136-3.059c7.79-0.159,9.145,7.051,9.145,7.051l6.723,26.713c0,0,3.947,17.682,23.874,17.682
		c5.027,0,10.534-2.337,14.792-6.339C161.202,86.554,153.982,81.45,150.478,74.261z"/>
	<path fill="#8C6B4B" d="M28.983,32.537c-3.717,4.052-5.981,9.416-5.981,15.299v0v14.348v1.835L23,93.584h12.503
		c0.618,0,2.089-0.032,3.583-1.5c0.821-0.807,1.295-1.757,1.295-3.379l-0.033-41.818c0.005-0.939,0.373-1.905,0.999-2.79
		c0.016-0.021,0.03-0.043,0.046-0.063c0.004-0.005,0.009-0.012,0.013-0.018c0.211-0.271,0.452-0.521,0.716-0.745
		c-0.017,0.002-0.034,0.006-0.05,0.008c0.8-0.725,1.88-1.212,3.225-1.212c0.023-0.001,0.031,0,0.053,0
		c0.556,0,1.09,0.094,1.589,0.264C43.096,36.543,36.505,32.684,28.983,32.537z M40.349,46.887
		C40.349,46.873,40.349,46.887,40.349,46.887L40.349,46.887L40.349,46.887z"/>
	<path fill="#8C6B4B" d="M106.892,50.618L106.892,50.618c0-11.684,8.82-21.287,20.799-22.562c-3.26-1.85-7.106-3.041-11.375-3.041h0
		h0c-12.854,0-23.208,10.177-23.208,22.805c0,0,0,19.148,0,20.051c0,0.176,0.014,0.525,0,0.699
		c-0.31,11.572-9.455,20.885-21.004,22.021c5.365,2.975,10.696,2.977,11.58,2.977h0c12.854,0,23.208-10.271,23.208-22.9v-9.092
		V50.618z"/>
	<path fill="#8C6B4B" d="M90.997,73.356c-0.919,1.073-2.1,1.923-3.447,2.455c-0.156,0.077-0.313,0.15-0.472,0.224
		c-0.873,0.282-2.094,0.529-3.52,0.408c-3.601-0.296-6.577-2.776-7.612-6.055L75.834,70l-6.861-27.262l-0.047-0.194
		c-0.117-0.483-0.249-0.961-0.396-1.433c-2.922-9.346-11.78-16.142-22.253-16.142c-6.233,0-11.891,2.413-16.069,6.333
		c8.756,0.612,16.17,5.978,19.585,13.488c0.063,0.123,0.121,0.249,0.173,0.376c0.374,0.864,0.689,1.757,0.954,2.671l5.774,16.296
		l1.684,4.753c0,0,3.659,10.224,3.713,10.356c0,0,1.803,4.666,6.095,8.552c0.66,0.598,1.339,1.131,2.025,1.612
		C80.201,89.209,88.552,82.463,90.997,73.356z"/>
</g>
</svg>
